<?xml version="1.0" encoding="UTF-8"?>
<svg version="1.1" xmlns="http://www.w3.org/2000/svg" width="600" height="600">
<path d="M0 0 C0.09416654 28.31564366 0.1643286 56.63126327 0.20724869 84.94703293 C0.22772229 98.0996708 0.25554527 111.25221043 0.30175781 124.40478516 C0.34209836 135.89177664 0.36754262 147.37869686 0.37635398 158.86575723 C0.38149039 164.92699038 0.39322906 170.98801999 0.42292023 177.04918671 C0.88773622 275.84401575 -16.00155556 375.69133569 -90.42382812 478.11523438 C-91.92261907 479.9074689 -93.40719105 481.71067862 -94.890625 483.515625 C-105.33458018 496.09271467 -116.78992168 508.07891474 -129.67578125 518.171875 C-131.78711391 519.83255347 -133.76688443 521.56524847 -135.75 523.375 C-199.28084334 579.30276067 -289.39703808 600.19167091 -371.95410156 600.18530273 C-375.0997486 600.1874825 -378.24503982 600.20569853 -381.390625 600.22460938 C-439.3122452 600.38663541 -498.39916316 586.35825897 -540.55078125 544.46484375 C-541.35902344 543.65144531 -542.16726563 542.83804688 -543 542 C-543.64839844 541.360625 -544.29679688 540.72125 -544.96484375 540.0625 C-583.34883664 499.93032525 -597.50532064 438.85670406 -597.375 384.875 C-597.37412384 383.97958496 -597.37324768 383.08416992 -597.37234497 382.16162109 C-597.32611314 367.77952212 -596.48085505 354.01166721 -593 340 C-592.74798828 338.98099609 -592.49597656 337.96199219 -592.23632812 336.91210938 C-590.3658149 329.54219755 -588.26048072 322.25912865 -586 315 C-585.72816895 314.1239209 -585.45633789 313.2478418 -585.17626953 312.34521484 C-564.39286608 246.63504213 -520.65805924 206.2785868 -461 175.0625 C-431.44087497 159.77308737 -400.30528157 148.63362947 -368.5625 138.8125 C-367.84940674 138.59031799 -367.13631348 138.36813599 -366.40161133 138.13922119 C-337.6726733 129.23225345 -308.44767924 122.02907627 -279.20182991 115.0572834 C-248.16828413 107.65654034 -217.26903889 100.16031677 -187 90 C-185.95610107 89.65282928 -185.95610107 89.65282928 -184.89111328 89.29864502 C-128.09172872 70.40579774 -74.83935365 44.03817312 -23.73242188 13.01660156 C-20.85017407 11.26762733 -17.96525764 9.52311572 -15.07904053 7.78070068 C-13.3997282 6.76495703 -11.72351981 5.74408741 -10.04736328 4.72314453 C-9.02884277 4.10810059 -8.01032227 3.49305664 -6.9609375 2.859375 C-6.05134277 2.30733398 -5.14174805 1.75529297 -4.20458984 1.18652344 C-2 0 -2 0 0 0 Z " fill="#000000" transform="translate(600,0)"/>
</svg>
